HIERARCHY
ROOT Joint1
{
	OFFSET 0.000000 0.000000 0.000000
	CHANNELS 6 Xposition Yposition Zposition Xrotation Yrotation Zrotation
	JOINT Joint2
	{
		OFFSET -0.000000 0.000000 1.456275
		CHANNELS 6 Xposition Yposition Zposition Xrotation Yrotation Zrotation
		JOINT Joint3
		{
			OFFSET -0.000000 0.000002 1.471446
			CHANNELS 6 Xposition Yposition Zposition Xrotation Yrotation Zrotation
			JOINT Joint4
			{
				OFFSET 0.625745 0.000000 0.917755
				CHANNELS 6 Xposition Yposition Zposition Xrotation Yrotation Zrotation
				JOINT Joint5
				{
					OFFSET -0.629534 0.000001 0.940221
					CHANNELS 6 Xposition Yposition Zposition Xrotation Yrotation Zrotation
					JOINT Joint6
					{
						OFFSET -0.000001 0.113772 1.960660
						CHANNELS 6 Xposition Yposition Zposition Xrotation Yrotation Zrotation
						JOINT Joint7
						{
							OFFSET -0.669733 -0.113771 0.388340
							CHANNELS 6 Xposition Yposition Zposition Xrotation Yrotation Zrotation
							End Site
							{
								OFFSET 0.005509 0.005509 0.438980
							}
						}
					}
				}
			}
		}
	}
}
MOTION
Frames: 29
Frame Time: 0.041667
0.000000 0.000000 0.000000 -0.000000 1.019410 40.321270 -0.000000 0.000000 1.456275 -0.000001 -42.073982 0.000002 -0.000000 0.000002 1.471446 -0.000003 -1.133456 57.485543 0.625745 0.000000 0.917755 -0.000007 75.265003 -0.000000 -0.629533 0.000001 0.940221 0.000001 1.709737 10.020361 -0.000001 0.113772 1.960660 -88.303875 103.892600 0.000012 -0.669733 -0.113771 0.388339 0.297644 2.379948 35.382023 
0.000000 0.000000 0.000000 -0.000000 1.019410 39.602021 -0.000000 -0.000000 1.456275 0.000001 -42.125830 -0.000001 -0.000000 0.000002 1.471445 -0.000001 -1.133455 56.459799 0.625745 0.000001 0.917755 -0.000004 76.330601 0.000003 -0.629534 0.000001 0.940221 0.000005 1.709738 9.841488 -0.000000 0.113772 1.960660 -88.303868 103.644480 0.000012 -0.669733 -0.113771 0.388340 0.302424 2.411080 37.156594 
0.000000 0.000000 0.000000 -0.000000 1.019410 38.882744 -0.000000 0.000000 1.456275 0.000001 -42.177692 -0.000000 -0.000000 0.000002 1.471446 -0.000004 -1.133455 55.434017 0.625745 0.000000 0.917755 -0.000008 77.396248 0.000002 -0.629534 0.000001 0.940221 0.000002 1.709735 9.662607 -0.000001 0.113772 1.960660 -88.303868 103.396346 0.000012 -0.669733 -0.113771 0.388340 0.306246 2.442347 38.931279 
0.000000 0.000000 0.000000 -0.000000 1.019410 38.042692 -0.000000 0.000000 1.456275 -0.000002 -42.238259 -0.000003 -0.000000 0.000002 1.471446 -0.000001 -1.133456 54.236002 0.625745 0.000000 0.917755 -0.000005 78.640811 0.000005 -0.629534 0.000001 0.940221 -0.000001 1.709737 9.453691 -0.000001 0.113772 1.960661 -88.303875 103.106562 0.000008 -0.669733 -0.113771 0.388340 0.309476 2.478995 41.003996 
0.000000 0.000000 0.000000 -0.000000 1.019410 36.961138 -0.000000 0.000000 1.456275 -0.000004 -42.316225 -0.000001 -0.000000 0.000002 1.471446 -0.000002 -1.133452 52.693564 0.625745 0.000001 0.917755 -0.000004 80.243173 0.000006 -0.629534 0.000001 0.940221 0.000001 1.709731 9.184722 -0.000001 0.113772 1.960661 -88.303862 102.733442 -0.000002 -0.669733 -0.113771 0.388340 0.311677 2.526299 43.672674 
0.000000 0.000000 0.000000 -0.000000 1.019410 35.608563 -0.000000 0.000000 1.456275 0.000003 -42.413723 -0.000001 -0.000000 0.000002 1.471446 -0.000006 -1.133457 50.764623 0.625745 0.000000 0.917755 0.000005 82.247062 0.000006 -0.629533 0.000001 0.940221 0.000000 1.709736 8.848348 -0.000001 0.113772 1.960660 -88.303855 102.266838 0.000013 -0.669733 -0.113771 0.388339 0.311321 2.585523 47.010222 
0.000000 0.000000 0.000000 -0.000000 1.019410 34.320256 -0.000000 0.000000 1.456275 -0.000001 -42.506603 0.000001 -0.000000 0.000002 1.471446 -0.000003 -1.133457 48.927343 0.625745 0.000000 0.917755 0.000002 84.155737 0.000008 -0.629534 0.000001 0.940221 -0.000003 1.709735 8.527956 -0.000001 0.113772 1.960661 -88.303868 101.822418 0.000018 -0.669733 -0.113771 0.388340 0.307774 2.641828 50.189316 
0.000000 0.000000 0.000000 -0.000000 1.019410 33.395821 -0.000000 0.000000 1.456275 0.000001 -42.573249 -0.000003 -0.000000 0.000002 1.471446 -0.000004 -1.133458 47.608976 0.625745 0.000000 0.917755 -0.000034 85.525327 0.000030 -0.629534 0.000001 0.940221 -0.000000 1.709734 8.298051 -0.000001 0.113772 1.960661 -88.303868 101.503510 -0.000021 -0.669733 -0.113770 0.388340 0.303306 2.682052 52.470606 
0.000000 0.000000 0.000000 -0.000000 1.019410 32.627185 -0.000000 0.000000 1.456275 -0.000004 -42.628662 0.000002 -0.000000 0.000002 1.471445 -0.000002 -1.133452 46.512806 0.625744 0.000000 0.917755 -0.000029 86.664090 0.000030 -0.629534 0.000001 0.940221 0.000001 1.709735 8.106898 -0.000001 0.113772 1.960660 -88.303875 101.238348 -0.000014 -0.669733 -0.113771 0.388340 0.298371 2.715360 54.367466 
0.000000 0.000000 0.000000 -0.000000 1.019410 31.679374 -0.000000 0.000000 1.456275 -0.000001 -42.696995 -0.000001 -0.000000 0.000002 1.471446 -0.000004 -1.133455 45.161105 0.625745 0.000000 0.917755 -0.000088 88.068309 0.000086 -0.629534 0.000001 0.940221 -0.000001 1.709741 7.871184 -0.000001 0.113772 1.960661 -88.303875 100.911380 0.000006 -0.669733 -0.113771 0.388340 0.290776 2.756160 56.706590 
0.000000 0.000000 0.000000 -0.000000 1.019410 30.358927 -0.000000 0.000000 1.456275 -0.000001 -42.792184 -0.000000 -0.000000 0.000002 1.471446 -0.000003 -1.133457 43.277991 0.625745 0.000001 0.917755 0.003421 90.024598 -0.003262 -0.629534 0.000001 0.940221 0.000002 1.709738 7.542802 -0.000001 0.113772 1.960661 -88.303848 100.455861 -0.000003 -0.669733 -0.113771 0.388340 0.277423 2.812418 59.965475 
0.000000 0.000000 0.000000 -0.000000 1.019410 29.038495 -0.000000 -0.000000 1.456275 -0.000002 -42.887373 0.000001 -0.000000 0.000002 1.471445 -0.000002 -1.133455 41.394881 0.625744 0.000000 0.917755 0.000018 91.980880 -0.000003 -0.629534 0.000001 0.940221 -0.000002 1.709736 7.214419 -0.000001 0.113772 1.960660 -88.303868 100.000349 -0.000001 -0.669733 -0.113771 0.388339 0.260889 2.867825 63.224527 
0.000000 0.000000 0.000000 -0.000000 1.019410 28.090690 -0.000000 0.000000 1.456275 0.000001 -42.955705 -0.000000 -0.000000 0.000002 1.471446 -0.000001 -1.133457 40.043190 0.625745 0.000000 0.917755 0.000039 93.385085 -0.000016 -0.629533 0.000001 0.940221 0.000000 1.709736 6.978709 -0.000001 0.113772 1.960661 -88.303875 99.673381 0.000014 -0.669733 -0.113771 0.388340 0.247092 2.906974 65.563949 
0.000000 0.000000 0.000000 -0.000000 1.019410 27.322063 -0.000000 -0.000000 1.456275 0.000001 -43.011112 0.000000 -0.000000 0.000002 1.471446 -0.000001 -1.133455 38.947030 0.625745 0.000001 0.917755 -0.000003 94.523828 -0.000001 -0.629534 0.000001 0.940221 -0.000001 1.709734 6.787553 -0.000001 0.113772 1.960661 -88.303868 99.408219 0.000020 -0.669734 -0.113771 0.388339 0.234730 2.938290 67.461205 
0.000000 0.000000 0.000000 -0.000000 1.019410 26.397605 -0.000000 0.000000 1.456275 0.000002 -43.077757 -0.000001 -0.000000 0.000002 1.471446 -0.000003 -1.133458 37.628643 0.625745 0.000000 0.917755 0.000031 95.893452 -0.000018 -0.629534 0.000001 0.940221 -0.000001 1.709735 6.557653 -0.000001 0.113772 1.960660 -88.303862 99.089318 0.000010 -0.669733 -0.113771 0.388340 0.218501 2.975381 69.743157 
0.000000 0.000000 0.000000 -0.000000 1.019410 25.109276 -0.000000 0.000000 1.456275 0.000001 -43.170634 -0.000000 -0.000000 0.000002 1.471446 -0.000001 -1.133459 35.791315 0.625745 0.000000 0.917755 0.000005 97.802162 -0.000039 -0.629534 0.000001 0.940221 -0.000002 1.709736 6.237253 -0.000000 0.113772 1.960661 -88.303862 98.644877 0.000033 -0.669733 -0.113771 0.388340 0.193441 3.025942 72.923485 
0.000000 0.000000 0.000000 -0.000000 1.019410 23.756726 -0.000000 -0.000000 1.456275 -0.000002 -43.268142 0.000000 -0.000000 0.000002 1.471446 0.000002 -1.133456 33.862422 0.625745 0.000000 0.917755 -0.000011 99.806023 -0.000011 -0.629534 0.000001 0.940220 -0.000003 1.709737 5.900883 -0.000001 0.113772 1.960661 -88.303855 98.178287 0.000035 -0.669733 -0.113771 0.388340 0.164155 3.077438 76.262504 
0.000000 0.000000 0.000000 -0.000000 1.019410 22.675311 -0.000000 0.000000 1.456275 0.000002 -43.346098 -0.000000 -0.000000 0.000002 1.471445 -0.000001 -1.133461 32.320182 0.625744 0.000000 0.917755 0.000016 101.408187 -0.000013 -0.629534 0.000001 0.940220 -0.000002 1.709739 5.631945 -0.000001 0.113772 1.960661 -88.303882 97.805228 0.000011 -0.669733 -0.113771 0.388340 0.138610 3.117333 78.932316 
0.000000 0.000000 0.000000 -0.000000 1.019410 21.835333 -0.000000 -0.000000 1.456275 0.000000 -43.406651 -0.000000 -0.000000 0.000002 1.471446 -0.000002 -1.133459 31.122276 0.625745 0.000000 0.917755 0.000022 102.652641 -0.000000 -0.629534 0.000001 0.940220 -0.000001 1.709742 5.423047 -0.000001 0.113772 1.960661 -88.303841 97.515458 -0.000008 -0.669733 -0.113771 0.388339 0.117495 3.147476 81.006132 
0.000000 0.000000 0.000000 -0.000000 1.019410 21.115844 -0.000000 -0.000000 1.456275 -0.000000 -43.458523 0.000001 -0.000000 0.000002 1.471446 -0.000001 -1.133455 30.096187 0.625745 0.000000 0.917755 0.000010 103.718595 -0.000004 -0.629534 0.000001 0.940220 -0.000002 1.709740 5.244116 -0.000001 0.113772 1.960660 -88.303862 97.267255 0.000019 -0.669733 -0.113771 0.388340 0.098553 3.172673 82.782542 
0.000000 0.000000 0.000000 -0.000000 1.019410 20.396041 -0.000000 0.000000 1.456275 0.000000 -43.510416 0.000001 -0.000000 0.000002 1.471446 -0.000002 -1.133460 29.069657 0.625744 0.000000 0.917755 0.000012 104.785012 -0.000004 -0.629533 0.000001 0.940221 0.000001 1.709741 5.065108 -0.000002 0.113772 1.960661 -88.303868 97.018944 -0.000009 -0.669734 -0.113771 0.388340 0.078825 3.197286 84.559777 
0.000000 0.000000 0.000000 -0.000000 1.019410 19.555752 -0.000000 -0.000000 1.456275 0.000001 -43.570989 -0.000000 -0.000000 0.000002 1.471446 0.000001 -1.133457 27.871301 0.625744 0.000001 0.917755 0.000007 106.029931 -0.000010 -0.629534 0.000001 0.940221 0.000003 1.709735 4.856133 -0.000001 0.113772 1.960660 -88.303855 96.729064 0.000022 -0.669734 -0.113771 0.388341 0.054844 3.225222 86.634563 
0.000000 0.000000 0.000000 -0.000000 1.019410 18.474960 -0.000000 0.000000 1.456275 0.000000 -43.648911 -0.000002 -0.000000 0.000002 1.471446 -0.000001 -1.133455 26.329954 0.625745 0.000000 0.917755 0.000008 107.631166 0.000005 -0.629533 0.000001 0.940221 0.000002 1.709740 4.587346 -0.000001 0.113772 1.960661 -88.303868 96.356218 0.000025 -0.669733 -0.113771 0.388340 0.022535 3.259852 89.303275 
0.000000 0.000000 0.000000 -0.000000 1.019410 17.123928 -0.000000 -0.000000 1.456275 -0.000002 -43.746306 -0.000001 -0.000000 0.000002 1.471446 0.000000 -1.133455 24.403217 0.625745 0.000000 0.917755 0.000013 109.632767 -0.000010 -0.629534 0.000001 0.940221 -0.000000 1.709734 4.251357 -0.000001 0.113772 1.960661 -88.303862 95.890153 0.000038 -0.669733 -0.113771 0.388339 -0.020073 3.300963 92.639427 
0.000000 0.000000 0.000000 -0.000000 1.019410 15.834078 -0.000000 0.000000 1.456275 -0.000001 -43.839296 -0.000000 -0.000000 0.000002 1.471446 -0.000002 -1.133461 22.563730 0.625745 0.000000 0.917755 0.000001 111.543737 -0.000005 -0.629534 0.000001 0.940221 0.000005 1.709737 3.930581 -0.000001 0.113772 1.960660 -88.303827 95.445186 0.000027 -0.669733 -0.113771 0.388340 -0.062916 3.337845 95.824665 
0.000000 0.000000 0.000000 -0.000000 1.019410 14.902822 -0.000000 0.000000 1.456275 0.000002 -43.906430 -0.000001 -0.000000 0.000002 1.471446 0.000000 -1.133461 21.235639 0.625745 0.000000 0.917755 0.000016 112.923429 0.000006 -0.629535 0.000001 0.940221 0.000001 1.709733 3.698984 -0.000000 0.113772 1.960660 -88.303868 95.123928 0.000017 -0.669733 -0.113771 0.388340 -0.095099 3.362963 98.124458 
0.000000 0.000000 0.000000 -0.000000 1.019410 14.130506 -0.000000 0.000000 1.456275 0.000001 -43.962103 -0.000001 -0.000000 0.000002 1.471446 -0.000001 -1.133456 20.134216 0.625745 0.000001 0.917754 0.000013 114.067643 0.000002 -0.629534 0.000001 0.940221 0.000001 1.709738 3.506915 -0.000001 0.113772 1.960660 -88.303855 94.857503 0.000003 -0.669733 -0.113771 0.388339 -0.122533 3.382805 100.031775 
0.000000 0.000000 0.000000 -0.000000 1.019410 13.193194 -0.000000 0.000000 1.456275 -0.000000 -44.029677 0.000000 -0.000000 0.000002 1.471445 -0.000000 -1.133460 18.797495 0.625745 0.000000 0.917755 0.000002 115.456288 -0.000000 -0.629534 0.000001 0.940221 -0.000000 1.709736 3.273811 -0.000000 0.113772 1.960661 -88.303814 94.534155 -0.000000 -0.669733 -0.113771 0.388340 -0.156696 3.405646 102.346655 
0.000000 0.000000 0.000000 -0.000000 1.019410 11.895008 -0.000000 -0.000000 1.456275 0.000000 -44.123261 0.000000 -0.000000 0.000002 1.471446 -0.000001 -1.133462 16.946119 0.625745 0.000000 0.917755 0.000007 117.379615 -0.000002 -0.629534 0.000001 0.940221 -0.000000 1.709738 2.950964 -0.000001 0.113772 1.960661 -88.303862 94.086320 0.000023 -0.669733 -0.113771 0.388339 -0.205479 3.434963 105.552876 
